<svg xmlns="http://www.w3.org/2000/svg" width="1200" height="630" viewBox="0 0 1200 630">
  <defs>
    <linearGradient id="shareBg" x1="0" x2="1" y1="0" y2="1">
      <stop offset="0" stop-color="#FFFDF4"/>
      <stop offset=".48" stop-color="#EEF8EB"/>
      <stop offset="1" stop-color="#C8EBD6"/>
    </linearGradient>
    <filter id="cardShadow" x="-20%" y="-20%" width="140%" height="150%">
      <feDropShadow dx="0" dy="24" stdDeviation="26" flood-color="#274157" flood-opacity=".18"/>
    </filter>
  </defs>
  <rect width="1200" height="630" fill="url(#shareBg)"/>
  <path d="M930 -30 H1240 V280 L810 630 H580Z" fill="#FFFFFF" opacity=".26"/>
  <path d="M0 430 C260 340 450 690 740 540 C930 442 1030 470 1200 402 V630 H0Z" fill="#D7F0DE" opacity=".48"/>
  <g transform="translate(110 95)" filter="url(#cardShadow)">
    <rect width="430" height="430" rx="112" fill="#FFFDF4"/>
    
  <defs>
    <linearGradient id="iconBg" x1="0" x2="1" y1="0" y2="1">
      <stop offset="0" stop-color="#FFFDF4"/>
      <stop offset=".52" stop-color="#EAF6E8"/>
      <stop offset="1" stop-color="#BFE7D1"/>
    </linearGradient>
    <filter id="softShadow" x="-20%" y="-20%" width="140%" height="150%">
      <feDropShadow dx="0" dy="11.18" stdDeviation="11.18" flood-color="#274157" flood-opacity=".18"/>
    </filter>
    <filter id="tileShadow" x="-25%" y="-25%" width="150%" height="150%">
      <feDropShadow dx="0" dy="5.16" stdDeviation="5.16" flood-color="#24435B" flood-opacity=".25"/>
    </filter>
  </defs>
  
      <rect width="430" height="430" rx="103.2" fill="url(#iconBg)"/>
      <path d="M0 322.5 C111.8 266.6 249.39999999999998 408.5 430 309.59999999999997 L430 430 L0 430Z" fill="#D9F0DF" opacity=".9"/>
      <path d="M38.699999999999996 0 H258 L90.3 430 H0 V51.6Z" fill="#FFFFFF" opacity=".28"/>
      <path d="M335.40000000000003 -25.8 L464.40000000000003 103.2" stroke="#FFFFFF" stroke-width="15.05" opacity=".46" stroke-linecap="round"/>
    
  
    <g filter="url(#softShadow)" transform="rotate(-4 215 215)">
      <rect x="62.349999999999994" y="68.8" width="305.3" height="296.7" rx="49.45" fill="#F8FBF4"/>
      <rect x="73.53" y="79.97999999999999" width="282.94" height="274.34" rx="37.839999999999996" fill="#E7F3EA"/>
      <path d="M116.10000000000001 146.20000000000002 H279.5 Q326.8 146.20000000000002 326.8 193.5 V283.8" stroke="#FFFFFF" stroke-width="42.14" stroke-linecap="round" stroke-linejoin="round" fill="none"/>
      <path d="M116.10000000000001 146.20000000000002 H279.5 Q326.8 146.20000000000002 326.8 193.5 V283.8" stroke="#5FC68E" stroke-width="23.22" stroke-linecap="round" stroke-linejoin="round" fill="none"/>
      <path d="M103.2 288.1 H215 V197.8 H275.2" stroke="#FFFFFF" stroke-width="40.42" stroke-linecap="round" stroke-linejoin="round" fill="none"/>
      <path d="M103.2 288.1 H215 V197.8 H275.2" stroke="#54A6E8" stroke-width="21.93" stroke-linecap="round" stroke-linejoin="round" fill="none"/>
      <path d="M150.5 103.2 V227.9 H86" stroke="#FFFFFF" stroke-width="38.699999999999996" stroke-linecap="round" stroke-linejoin="round" fill="none"/>
      <path d="M150.5 103.2 V227.9 H86" stroke="#EC625B" stroke-width="21.5" stroke-linecap="round" stroke-linejoin="round" fill="none"/>
      <path d="M249.39999999999998 326.8 V245.09999999999997 H163.4" stroke="#FFFFFF" stroke-width="32.68" stroke-linecap="round" stroke-linejoin="round" fill="none"/>
      <path d="M249.39999999999998 326.8 V245.09999999999997 H163.4" stroke="#F0B83E" stroke-width="17.63" stroke-linecap="round" stroke-linejoin="round" fill="none"/>
    </g>
  <g filter="url(#tileShadow)">
    <g>
    <rect x="217.15" y="144.05" width="81.7" height="81.7" rx="17.974" fill="#FFFFFF"/>
    <rect x="223.2775" y="150.1775" width="69.44500000000001" height="69.44500000000001" rx="14.3792" fill="#58BA77"/>
    <polygon points="239.209,165.292 279.242,184.9 239.209,204.508" fill="#FBFFF9"/>
    <path d="M232.673 158.756 H276.791" stroke="#FFFFFF" stroke-width="3.7582" opacity=".38" stroke-linecap="round"/>
  </g>
    <g>
    <rect x="101.04999999999998" y="221.45" width="73.10000000000001" height="73.10000000000001" rx="16.082" fill="#FFFFFF"/>
    <rect x="106.53249999999998" y="226.93249999999998" width="62.135000000000005" height="62.135000000000005" rx="12.8656" fill="#D9544F"/>
    <polygon points="154.413,240.456 118.594,258 154.413,275.544" fill="#FBFFF9"/>
    <path d="M114.93899999999998 234.608 H154.41299999999998" stroke="#FFFFFF" stroke-width="3.3626000000000005" opacity=".38" stroke-linecap="round"/>
  </g>
    <g>
    <rect x="259.07500000000005" y="254.77500000000003" width="66.65" height="66.65" rx="14.663000000000002" fill="#FFFFFF"/>
    <rect x="264.07375" y="259.77375" width="56.6525" height="56.6525" rx="11.730400000000003" fill="#E4AE33"/>
    <polygon points="276.40400000000005,272.7705 292.40000000000003,305.42900000000003 308.396,272.7705" fill="#FBFFF9"/>
    <path d="M271.73850000000004 266.77200000000005 H307.72950000000003" stroke="#FFFFFF" stroke-width="3.0659" opacity=".38" stroke-linecap="round"/>
  </g>
    <g>
    <rect x="153.72500000000002" y="93.52499999999999" width="62.349999999999994" height="62.349999999999994" rx="13.716999999999999" fill="#FFFFFF"/>
    <rect x="158.40125000000003" y="98.20124999999999" width="52.997499999999995" height="52.997499999999995" rx="10.9736" fill="#4F9FE0"/>
    <polygon points="169.936,139.04049999999998 184.9,108.48899999999999 199.864,139.04049999999998" fill="#FBFFF9"/>
    <path d="M165.57150000000001 104.74799999999999 H199.24050000000003" stroke="#FFFFFF" stroke-width="2.8680999999999996" opacity=".38" stroke-linecap="round"/>
  </g>
  </g>

  </g>
  <text x="610" y="205" fill="#1F2B3A" font-family="Avenir Next, Nunito, Arial, sans-serif" font-size="76" font-weight="900">Arrow Again</text>
  <text x="613" y="280" fill="#526879" font-family="Avenir Next, Nunito, Arial, sans-serif" font-size="34" font-weight="700">A crisp arrow-maze puzzle for quick sessions</text>
  <text x="613" y="342" fill="#1F2B3A" font-family="Avenir Next, Nunito, Arial, sans-serif" font-size="38" font-weight="800">Find the free arrows.</text>
  <text x="613" y="388" fill="#1F2B3A" font-family="Avenir Next, Nunito, Arial, sans-serif" font-size="38" font-weight="800">Clear the board cleanly.</text>
  <g transform="translate(613 438)">
    <rect width="302" height="64" rx="32" fill="#1F2B3A"/>
    <text x="151" y="43" fill="#F8FBF6" text-anchor="middle" font-family="Avenir Next, Nunito, Arial, sans-serif" font-size="25" font-weight="800">Play the puzzle</text>
  </g>
</svg>