<svg xmlns="http://www.w3.org/2000/svg" width="2732" height="2732" viewBox="0 0 2732 2732">
  <defs>
    <linearGradient id="splashBg" x1="0" x2="1" y1="0" y2="1">
      <stop offset="0" stop-color="#FFFDF7"/>
      <stop offset=".5" stop-color="#F6FBF1"/>
      <stop offset="1" stop-color="#D4F0E1"/>
    </linearGradient>
    <filter id="splashShadow" x="-30%" y="-30%" width="160%" height="170%">
      <feDropShadow dx="0" dy="87.424" stdDeviation="87.424" flood-color="#264057" flood-opacity=".17"/>
    </filter>
  </defs>
  <rect width="2732" height="2732" fill="url(#splashBg)"/>
  <path d="M-218.56 191.24 H1584.56 L601.04 2732 H-218.56Z" fill="#FFFFFF" opacity=".38"/>
  <path d="M2732 327.84 L2732 1775.8 L1666.52 2732 H874.24Z" fill="#D8F0DE" opacity=".52"/>
  <path d="M655.68 519.08 H2130.96" stroke="#FFFFFF" stroke-width="49.175999999999995" stroke-linecap="round" opacity=".58"/>
  <path d="M1803.1200000000001 546.4 V928.8800000000001" stroke="#F0B83E" stroke-width="49.175999999999995" stroke-linecap="round" opacity=".72"/>
  <g opacity="0.24">
    <path d="M218.56 2130.96 H2404.16" stroke="#FFFFFF" stroke-width="213.096" stroke-linecap="round" fill="none"/>
    <path d="M218.56 2130.96 H2404.16" stroke="#5FC68E" stroke-width="101.08399999999999" stroke-linecap="round" fill="none"/>
    <path d="M491.76 2458.8 H1502.6000000000001 V1994.36 H2185.6" stroke="#FFFFFF" stroke-width="199.43599999999998" stroke-linecap="round" stroke-linejoin="round" fill="none"/>
    <path d="M491.76 2458.8 H1502.6000000000001 V1994.36 H2185.6" stroke="#54A6E8" stroke-width="95.62" stroke-linecap="round" stroke-linejoin="round" fill="none"/>
    <path d="M1857.7600000000002 1939.7199999999998 V2431.48" stroke="#F0B83E" stroke-width="87.424" stroke-linecap="round" fill="none"/>
    <path d="M874.24 2267.56 V1912.3999999999999 H491.76" stroke="#EC625B" stroke-width="79.22800000000001" stroke-linecap="round" stroke-linejoin="round" fill="none"/>
  </g>
  <g transform="translate(874.24 327.84000000000003) scale(0.96046875)" filter="url(#splashShadow)">
    
  <defs>
    <linearGradient id="iconBg" x1="0" x2="1" y1="0" y2="1">
      <stop offset="0" stop-color="#FFFDF4"/>
      <stop offset=".52" stop-color="#EAF6E8"/>
      <stop offset="1" stop-color="#BFE7D1"/>
    </linearGradient>
    <filter id="softShadow" x="-20%" y="-20%" width="140%" height="150%">
      <feDropShadow dx="0" dy="26.624" stdDeviation="26.624" flood-color="#274157" flood-opacity=".18"/>
    </filter>
    <filter id="tileShadow" x="-25%" y="-25%" width="150%" height="150%">
      <feDropShadow dx="0" dy="12.288" stdDeviation="12.288" flood-color="#24435B" flood-opacity=".25"/>
    </filter>
  </defs>
  
      <rect width="1024" height="1024" rx="245.76" fill="url(#iconBg)"/>
      <path d="M0 768 C266.24 634.88 593.92 972.8 1024 737.28 L1024 1024 L0 1024Z" fill="#D9F0DF" opacity=".9"/>
      <path d="M92.16 0 H614.4 L215.04 1024 H0 V122.88Z" fill="#FFFFFF" opacity=".28"/>
      <path d="M798.72 -61.44 L1105.92 245.76" stroke="#FFFFFF" stroke-width="35.84" opacity=".46" stroke-linecap="round"/>
    
  
    <g filter="url(#softShadow)" transform="rotate(-4 512 512)">
      <rect x="148.48" y="163.84" width="727.04" height="706.56" rx="117.76" fill="#F8FBF4"/>
      <rect x="175.10399999999998" y="190.464" width="673.7919999999999" height="653.3119999999999" rx="90.112" fill="#E7F3EA"/>
      <path d="M276.48 348.16 H665.6 Q778.24 348.16 778.24 460.8 V675.84" stroke="#FFFFFF" stroke-width="100.352" stroke-linecap="round" stroke-linejoin="round" fill="none"/>
      <path d="M276.48 348.16 H665.6 Q778.24 348.16 778.24 460.8 V675.84" stroke="#5FC68E" stroke-width="55.296" stroke-linecap="round" stroke-linejoin="round" fill="none"/>
      <path d="M245.76 686.08 H512 V471.04 H655.36" stroke="#FFFFFF" stroke-width="96.256" stroke-linecap="round" stroke-linejoin="round" fill="none"/>
      <path d="M245.76 686.08 H512 V471.04 H655.36" stroke="#54A6E8" stroke-width="52.224" stroke-linecap="round" stroke-linejoin="round" fill="none"/>
      <path d="M358.4 245.76 V542.72 H204.8" stroke="#FFFFFF" stroke-width="92.16" stroke-linecap="round" stroke-linejoin="round" fill="none"/>
      <path d="M358.4 245.76 V542.72 H204.8" stroke="#EC625B" stroke-width="51.2" stroke-linecap="round" stroke-linejoin="round" fill="none"/>
      <path d="M593.92 778.24 V583.68 H389.12" stroke="#FFFFFF" stroke-width="77.824" stroke-linecap="round" stroke-linejoin="round" fill="none"/>
      <path d="M593.92 778.24 V583.68 H389.12" stroke="#F0B83E" stroke-width="41.984" stroke-linecap="round" stroke-linejoin="round" fill="none"/>
    </g>
  <g filter="url(#tileShadow)">
    <g>
    <rect x="517.12" y="343.03999999999996" width="194.56" height="194.56" rx="42.803200000000004" fill="#FFFFFF"/>
    <rect x="531.712" y="357.63199999999995" width="165.376" height="165.376" rx="34.242560000000005" fill="#58BA77"/>
    <polygon points="569.6512,393.62559999999996 664.9856,440.32 569.6512,487.0144" fill="#FBFFF9"/>
    <path d="M554.0864 378.0608 H659.1487999999999" stroke="#FFFFFF" stroke-width="8.94976" opacity=".38" stroke-linecap="round"/>
  </g>
    <g>
    <rect x="240.64" y="527.36" width="174.08" height="174.08" rx="38.2976" fill="#FFFFFF"/>
    <rect x="253.696" y="540.416" width="147.96800000000002" height="147.96800000000002" rx="30.638080000000002" fill="#D9544F"/>
    <polygon points="367.71840000000003,572.6207999999999 282.4192,614.4 367.71840000000003,656.1792" fill="#FBFFF9"/>
    <path d="M273.7152 558.6944 H367.7184" stroke="#FFFFFF" stroke-width="8.00768" opacity=".38" stroke-linecap="round"/>
  </g>
    <g>
    <rect x="616.96" y="606.72" width="158.72" height="158.72" rx="34.9184" fill="#FFFFFF"/>
    <rect x="628.864" y="618.624" width="134.912" height="134.912" rx="27.93472" fill="#E4AE33"/>
    <polygon points="658.2272,649.5744000000001 696.32,727.3472 734.4128000000001,649.5744000000001" fill="#FBFFF9"/>
    <path d="M647.1168 635.2896000000001 H732.8256" stroke="#FFFFFF" stroke-width="7.30112" opacity=".38" stroke-linecap="round"/>
  </g>
    <g>
    <rect x="366.08" y="222.71999999999997" width="148.48" height="148.48" rx="32.6656" fill="#FFFFFF"/>
    <rect x="377.216" y="233.85599999999997" width="126.20799999999998" height="126.20799999999998" rx="26.13248" fill="#4F9FE0"/>
    <polygon points="404.6848,331.11039999999997 440.32,258.35519999999997 475.9552,331.11039999999997" fill="#FBFFF9"/>
    <path d="M394.2912 249.44639999999998 H474.4704" stroke="#FFFFFF" stroke-width="6.83008" opacity=".38" stroke-linecap="round"/>
  </g>
  </g>

  </g>
  <text x="1366" y="1447.96" text-anchor="middle" fill="#1F2B3A" font-family="Avenir Next, Nunito, Arial, sans-serif" font-size="193.97199999999998" font-weight="900" letter-spacing="2.732">Arrow Again</text>
  <text x="1366" y="1620.076" text-anchor="middle" fill="#526879" font-family="Avenir Next, Nunito, Arial, sans-serif" font-size="81.96" font-weight="760">Clear every arrow path.</text>
</svg>